<?xml version="1.0" standalone="no"?>
<!DOCTYPE svg PUBLIC "-//W3C//DTD SVG 20010904//EN"
 "http://www.w3.org/TR/2001/REC-SVG-20010904/DTD/svg10.dtd">
<svg version="1.0" xmlns="http://www.w3.org/2000/svg"
 width="409.000000pt" height="409.000000pt" viewBox="0 0 409.000000 409.000000"
 preserveAspectRatio="xMidYMid meet">
<metadata>
Created by potrace 1.14, written by Peter Selinger 2001-2017
</metadata>
<g transform="translate(0.000000,409.000000) scale(0.100000,-0.100000)"
fill="#000000" stroke="none">
<path d="M3788 3357 c-18 -29 -38 -62 -45 -73 -7 -10 -38 -63 -70 -117 -32
-54 -65 -111 -74 -125 -9 -15 -57 -96 -107 -180 -51 -85 -92 -158 -92 -163 0
-5 -4 -9 -9 -9 -5 0 -11 -6 -13 -13 -5 -19 -92 -166 -99 -167 -4 0 -14 21 -24
48 -59 156 -136 272 -261 392 -179 172 -371 269 -636 322 -150 30 -440 32
-593 4 -461 -84 -816 -377 -929 -768 -106 -369 -6 -792 250 -1055 l56 -57 -23
-40 c-12 -23 -25 -45 -29 -50 -5 -4 -79 49 -165 118 -87 70 -161 126 -165 124
-3 -2 -109 -73 -233 -158 -125 -85 -294 -200 -375 -255 l-147 -100 -3 -138
c-1 -75 0 -137 3 -137 6 0 184 120 545 367 82 57 154 103 160 103 6 0 10 -94
10 -275 l0 -275 563 0 563 0 -8 77 c-4 43 -19 178 -31 300 l-23 223 74 262
c87 311 83 298 90 278 3 -8 15 -37 27 -65 12 -27 66 -153 119 -280 54 -126
104 -244 111 -260 8 -17 19 -44 25 -60 9 -23 13 -27 20 -15 4 8 96 220 205
470 108 250 207 478 219 505 13 28 54 122 92 210 69 159 69 159 76 120 4 -22
10 -98 14 -170 12 -235 -31 -456 -127 -654 -43 -88 -63 -117 -129 -181 -62
-62 -97 -87 -176 -126 -55 -27 -100 -49 -101 -50 -3 0 -63 -549 -63 -571 0
-10 111 -13 565 -13 l565 0 0 310 0 310 -33 0 c-31 0 -34 -3 -50 -53 -27 -84
-58 -130 -102 -152 -37 -19 -63 -20 -384 -23 l-344 -3 7 32 c3 17 6 39 6 49 0
13 20 24 83 43 233 74 444 223 552 391 88 139 153 304 175 448 10 72 19 90
112 245 55 93 109 184 120 203 11 19 32 55 48 80 15 25 114 191 220 370 106
179 213 358 237 397 23 40 43 75 43 78 0 3 -58 5 -130 5 l-129 0 -33 -53z
m-1613 -198 c175 -21 309 -80 413 -182 73 -72 134 -164 126 -191 -4 -11 -35
-83 -69 -161 -34 -77 -137 -314 -230 -528 -92 -213 -169 -386 -170 -385 -2 2
-74 170 -160 373 -87 204 -164 386 -172 405 l-15 35 -54 -190 c-30 -105 -63
-221 -73 -260 -36 -131 -160 -557 -163 -560 -2 -2 -34 46 -73 106 -94 147
-102 160 -120 192 -9 15 -17 27 -19 27 -2 0 -17 -23 -35 -51 -17 -28 -34 -49
-37 -46 -12 12 -53 180 -64 265 -20 146 -8 413 24 535 97 375 309 577 646 617
97 11 146 11 245 -1z m-658 -1959 c11 0 93 -110 93 -124 0 -4 -85 -6 -190 -6
-104 0 -190 3 -190 6 0 4 18 38 40 76 22 39 40 72 40 76 0 3 7 13 16 23 14 16
20 15 97 -17 45 -18 87 -34 94 -34z m-621 -48 c34 -26 69 -55 78 -65 16 -16
15 -16 -16 -10 -66 12 -101 39 -132 100 -19 38 -20 47 -3 33 6 -5 39 -32 73
-58z"/>
<path d="M3735 2138 c-29 -16 -35 -28 -35 -70 0 -28 6 -42 26 -57 15 -12 33
-21 40 -21 28 0 63 24 72 50 27 75 -37 135 -103 98z"/>
<path d="M280 2005 l0 -135 -135 0 -135 0 0 -50 0 -50 135 0 135 0 0 -140 0
-140 50 0 50 0 0 140 0 140 135 0 135 0 0 50 0 50 -135 0 -135 0 0 135 0 135
-50 0 -50 0 0 -135z"/>
<path d="M3440 1820 l0 -50 325 0 325 0 0 50 0 50 -325 0 -325 0 0 -50z"/>
<path d="M3737 1633 c-20 -5 -47 -52 -47 -81 0 -11 8 -29 18 -41 45 -55 132
-24 132 48 0 20 -6 45 -12 54 -14 18 -61 29 -91 20z"/>
</g>
</svg>
